{
    "asset" : {
        "generator" : "Khronos glTF Blender I/O v1.7.33",
        "version" : "2.0"
    },
    "scene" : 0,
    "scenes" : [
        {
            "name" : "Scene",
            "nodes" : [
                0,
                1
            ]
        }
    ],
    "nodes" : [
        {
            "mesh" : 0,
            "name" : "Ceramic_cup_Circle.005",
            "translation" : [
                -3.5163581371307373,
                -0.843116044998169,
                0.03421074151992798
            ]
        },
        {
            "mesh" : 1,
            "name" : "Saucer_Circle.006",
            "translation" : [
                -3.5163581371307373,
                -0.843116044998169,
                0.03421074151992798
            ]
        }
    ],
    "materials" : [
        {
            "name" : "Ceramic_cup_colors",
            "pbrMetallicRoughness" : {
                "baseColorFactor" : [
                    0.5,
                    0.5,
                    0.5,
                    1
                ],
                "metallicFactor" : 0
            }
        }
    ],
    "meshes" : [
        {
            "name" : "Ceramic_cup_Circle.005-Mesh",
            "primitives" : [
                {
                    "attributes" : {
                        "POSITION" : 0,
                        "NORMAL" : 1,
                        "TEXCOORD_0" : 2
                    },
                    "indices" : 3,
                    "material" : 0
                }
            ]
        },
        {
            "name" : "Saucer_Circle.006-Mesh",
            "primitives" : [
                {
                    "attributes" : {
                        "POSITION" : 4,
                        "NORMAL" : 5,
                        "TEXCOORD_0" : 6
                    },
                    "indices" : 7,
                    "material" : 0
                }
            ]
        }
    ],
    "accessors" : [
        {
            "bufferView" : 0,
            "componentType" : 5126,
            "count" : 39324,
            "max" : [
                5.622391223907471,
                1.673570990562439,
                1.2987229824066162
            ],
            "min" : [
                2.2236649990081787,
                0.12323199957609177,
                -1.2987229824066162
            ],
            "type" : "VEC3"
        },
        {
            "bufferView" : 1,
            "componentType" : 5126,
            "count" : 39324,
            "type" : "VEC3"
        },
        {
            "bufferView" : 2,
            "componentType" : 5126,
            "count" : 39324,
            "type" : "VEC2"
        },
        {
            "bufferView" : 3,
            "componentType" : 5123,
            "count" : 219252,
            "type" : "SCALAR"
        },
        {
            "bufferView" : 4,
            "componentType" : 5126,
            "count" : 23239,
            "max" : [
                5.502717018127441,
                0.4011160135269165,
                1.9819869995117188
            ],
            "min" : [
                1.538743019104004,
                0.021386999636888504,
                -1.9819869995117188
            ],
            "type" : "VEC3"
        },
        {
            "bufferView" : 5,
            "componentType" : 5126,
            "count" : 23239,
            "type" : "VEC3"
        },
        {
            "bufferView" : 6,
            "componentType" : 5126,
            "count" : 23239,
            "type" : "VEC2"
        },
        {
            "bufferView" : 7,
            "componentType" : 5123,
            "count" : 113664,
            "type" : "SCALAR"
        }
    ],
    "bufferViews" : [
        {
            "buffer" : 0,
            "byteLength" : 471888,
            "byteOffset" : 0
        },
        {
            "buffer" : 0,
            "byteLength" : 471888,
            "byteOffset" : 471888
        },
        {
            "buffer" : 0,
            "byteLength" : 314592,
            "byteOffset" : 943776
        },
        {
            "buffer" : 0,
            "byteLength" : 438504,
            "byteOffset" : 1258368
        },
        {
            "buffer" : 0,
            "byteLength" : 278868,
            "byteOffset" : 1696872
        },
        {
            "buffer" : 0,
            "byteLength" : 278868,
            "byteOffset" : 1975740
        },
        {
            "buffer" : 0,
            "byteLength" : 185912,
            "byteOffset" : 2254608
        },
        {
            "buffer" : 0,
            "byteLength" : 227328,
            "byteOffset" : 2440520
        }
    ],
    "buffers" : [
        {
            "byteLength" : 2667848,
            "uri" : "data:application/octet-stream;base64,"
        }
    ]
}
