{
  "accessors": [
    {
      "name": "Ceramic_cup_Circle.005-Mesh_0_positions",
      "componentType": 5126,
      "count": 37192,
      "min": [
        2.2236649990081787,
        0.12323199957609177,
        -1.2987229824066162
      ],
      "max": [
        5.622391223907471,
        1.673570990562439,
        1.2987229824066162
      ],
      "type": "VEC3",
      "bufferView": 0,
      "byteOffset": 0
    },
    {
      "name": "Ceramic_cup_Circle.005-Mesh_0_normals",
      "componentType": 5126,
      "count": 37192,
      "min": [
        -0.9999998211860657,
        -1,
        -1
      ],
      "max": [
        0.9999997615814209,
        1,
        1
      ],
      "type": "VEC3",
      "bufferView": 1,
      "byteOffset": 0
    },
    {
      "name": "Ceramic_cup_Circle.005-Mesh_0_texcoords",
      "componentType": 5126,
      "count": 37192,
      "min": [
        0,
        0
      ],
      "max": [
        1,
        1
      ],
      "type": "VEC2",
      "bufferView": 2,
      "byteOffset": 0
    },
    {
      "name": "Ceramic_cup_Circle.005-Mesh_0_indices",
      "componentType": 5123,
      "count": 219252,
      "min": [
        0
      ],
      "max": [
        37191
      ],
      "type": "SCALAR",
      "bufferView": 3,
      "byteOffset": 0
    },
    {
      "name": "Saucer_Circle.006-Mesh_0_positions",
      "componentType": 5126,
      "count": 19158,
      "min": [
        1.538743019104004,
        0.021386999636888504,
        -1.9819869995117188
      ],
      "max": [
        5.502717018127441,
        0.4011160135269165,
        1.9819869995117188
      ],
      "type": "VEC3",
      "bufferView": 0,
      "byteOffset": 446304
    },
    {
      "name": "Saucer_Circle.006-Mesh_0_normals",
      "componentType": 5126,
      "count": 19158,
      "min": [
        -0.9994586706161499,
        -1,
        -0.9994586706161499
      ],
      "max": [
        0.9994521141052246,
        1,
        0.9994586706161499
      ],
      "type": "VEC3",
      "bufferView": 1,
      "byteOffset": 446304
    },
    {
      "name": "Saucer_Circle.006-Mesh_0_texcoords",
      "componentType": 5126,
      "count": 19158,
      "min": [
        0,
        0
      ],
      "max": [
        1,
        1
      ],
      "type": "VEC2",
      "bufferView": 2,
      "byteOffset": 297536
    },
    {
      "name": "Saucer_Circle.006-Mesh_0_indices",
      "componentType": 5123,
      "count": 113664,
      "min": [
        0
      ],
      "max": [
        19157
      ],
      "type": "SCALAR",
      "bufferView": 3,
      "byteOffset": 438504
    },
    {
      "name": "Floor_Plane-Mesh_0_positions",
      "componentType": 5126,
      "count": 4,
      "min": [
        -21.749242782592773,
        0,
        -21.749242782592773
      ],
      "max": [
        21.749242782592773,
        0,
        21.749242782592773
      ],
      "type": "VEC3",
      "bufferView": 0,
      "byteOffset": 676200
    },
    {
      "name": "Floor_Plane-Mesh_0_normals",
      "componentType": 5126,
      "count": 4,
      "min": [
        0,
        1,
        0
      ],
      "max": [
        0,
        1,
        0
      ],
      "type": "VEC3",
      "bufferView": 1,
      "byteOffset": 676200
    },
    {
      "name": "Floor_Plane-Mesh_0_texcoords",
      "componentType": 5126,
      "count": 4,
      "min": [
        0,
        0
      ],
      "max": [
        1,
        1
      ],
      "type": "VEC2",
      "bufferView": 2,
      "byteOffset": 450800
    },
    {
      "name": "Floor_Plane-Mesh_0_indices",
      "componentType": 5123,
      "count": 6,
      "min": [
        0
      ],
      "max": [
        3
      ],
      "type": "SCALAR",
      "bufferView": 3,
      "byteOffset": 665832
    },
    {
      "name": "Light_emission.001_Plane.004-Mesh_0_positions",
      "componentType": 5126,
      "count": 16,
      "min": [
        -3.9642019271850586,
        21.953144073486328,
        -2.0144710540771484
      ],
      "max": [
        9.946244239807129,
        21.983322143554688,
        15.53719711303711
      ],
      "type": "VEC3",
      "bufferView": 0,
      "byteOffset": 676248
    },
    {
      "name": "Light_emission.001_Plane.004-Mesh_0_normals",
      "componentType": 5126,
      "count": 16,
      "min": [
        0,
        0.9999985694885254,
        0.001699997577816248
      ],
      "max": [
        0,
        0.9999985694885254,
        0.001699997577816248
      ],
      "type": "VEC3",
      "bufferView": 1,
      "byteOffset": 676248
    },
    {
      "name": "Light_emission.001_Plane.004-Mesh_0_texcoords",
      "componentType": 5126,
      "count": 16,
      "min": [
        0,
        0
      ],
      "max": [
        1,
        1
      ],
      "type": "VEC2",
      "bufferView": 2,
      "byteOffset": 450832
    },
    {
      "name": "Light_emission.001_Plane.004-Mesh_0_indices",
      "componentType": 5123,
      "count": 24,
      "min": [
        0
      ],
      "max": [
        15
      ],
      "type": "SCALAR",
      "bufferView": 3,
      "byteOffset": 665844
    },
    {
      "name": "Light_emission.001_Plane.004-Mesh_1_positions",
      "componentType": 5126,
      "count": 8,
      "min": [
        -3.964202880859375,
        21.95046615600586,
        -10.091514587402344
      ],
      "max": [
        9.946245193481445,
        21.96591567993164,
        -2.460357904434204
      ],
      "type": "VEC3",
      "bufferView": 0,
      "byteOffset": 676440
    },
    {
      "name": "Light_emission.001_Plane.004-Mesh_1_normals",
      "componentType": 5126,
      "count": 8,
      "min": [
        0,
        0.9999979734420776,
        0.001999995904043317
      ],
      "max": [
        0,
        0.9999979734420776,
        0.001999995904043317
      ],
      "type": "VEC3",
      "bufferView": 1,
      "byteOffset": 676440
    },
    {
      "name": "Light_emission.001_Plane.004-Mesh_1_texcoords",
      "componentType": 5126,
      "count": 8,
      "min": [
        0,
        0
      ],
      "max": [
        1,
        1
      ],
      "type": "VEC2",
      "bufferView": 2,
      "byteOffset": 450960
    },
    {
      "name": "Light_emission.001_Plane.004-Mesh_1_indices",
      "componentType": 5123,
      "count": 12,
      "min": [
        0
      ],
      "max": [
        7
      ],
      "type": "SCALAR",
      "bufferView": 3,
      "byteOffset": 665892
    },
    {
      "name": "Circle_Circle.009-Mesh_0_positions",
      "componentType": 5126,
      "count": 100,
      "min": [
        -0.03661999851465225,
        8.667116165161133,
        -3.2558159828186035
      ],
      "max": [
        6.475011825561523,
        8.667116165161133,
        3.2558159828186035
      ],
      "type": "VEC3",
      "bufferView": 0,
      "byteOffset": 676536
    },
    {
      "name": "Circle_Circle.009-Mesh_0_normals",
      "componentType": 5126,
      "count": 100,
      "min": [
        0,
        1,
        0
      ],
      "max": [
        0,
        1,
        0
      ],
      "type": "VEC3",
      "bufferView": 1,
      "byteOffset": 676536
    },
    {
      "name": "Circle_Circle.009-Mesh_0_texcoords",
      "componentType": 5126,
      "count": 100,
      "min": [
        0,
        0
      ],
      "max": [
        1,
        1
      ],
      "type": "VEC2",
      "bufferView": 2,
      "byteOffset": 451024
    },
    {
      "name": "Circle_Circle.009-Mesh_0_indices",
      "componentType": 5123,
      "count": 294,
      "min": [
        0
      ],
      "max": [
        99
      ],
      "type": "SCALAR",
      "bufferView": 3,
      "byteOffset": 665916
    }
  ],
  "asset": {
    "generator": "obj2gltf",
    "version": "2.0"
  },
  "buffers": [
    {
      "name": "CupModel",
      "byteLength": 2473800,
      "uri": "data:application/octet-stream;base64,"
    }
  ],
  "bufferViews": [
    {
      "name": "bufferView_0",
      "buffer": 0,
      "byteLength": 677736,
      "byteOffset": 0,
      "byteStride": 12,
      "target": 34962
    },
    {
      "name": "bufferView_1",
      "buffer": 0,
      "byteLength": 677736,
      "byteOffset": 677736,
      "byteStride": 12,
      "target": 34962
    },
    {
      "name": "bufferView_2",
      "buffer": 0,
      "byteLength": 451824,
      "byteOffset": 1355472,
      "byteStride": 8,
      "target": 34962
    },
    {
      "name": "bufferView_3",
      "buffer": 0,
      "byteLength": 666504,
      "byteOffset": 1807296,
      "target": 34963
    }
  ],
  "materials": [
    {
      "name": "Ceramic_cup_colors",
      "pbrMetallicRoughness": {
        "baseColorFactor": [
          0.5,
          0.5,
          0.5,
          1
        ],
        "metallicFactor": 0,
        "roughnessFactor": 1
      },
      "emissiveFactor": [
        0,
        0,
        0
      ],
      "alphaMode": "OPAQUE",
      "doubleSided": false
    },
    {
      "name": "Floor_color",
      "pbrMetallicRoughness": {
        "baseColorFactor": [
          0.5,
          0.5,
          0.5,
          1
        ],
        "metallicFactor": 0,
        "roughnessFactor": 1
      },
      "emissiveFactor": [
        0,
        0,
        0
      ],
      "alphaMode": "OPAQUE",
      "doubleSided": false
    },
    {
      "name": "Material.003",
      "pbrMetallicRoughness": {
        "baseColorFactor": [
          0.5,
          0.5,
          0.5,
          1
        ],
        "metallicFactor": 0,
        "roughnessFactor": 1
      },
      "emissiveFactor": [
        0,
        0,
        0
      ],
      "alphaMode": "OPAQUE",
      "doubleSided": false
    },
    {
      "name": "Material.002",
      "pbrMetallicRoughness": {
        "baseColorFactor": [
          0.5,
          0.5,
          0.5,
          1
        ],
        "metallicFactor": 0,
        "roughnessFactor": 1
      },
      "emissiveFactor": [
        0,
        0,
        0
      ],
      "alphaMode": "OPAQUE",
      "doubleSided": false
    },
    {
      "name": "None",
      "pbrMetallicRoughness": {
        "baseColorFactor": [
          0.5,
          0.5,
          0.5,
          1
        ],
        "metallicFactor": 0,
        "roughnessFactor": 1
      },
      "emissiveFactor": [
        0,
        0,
        0
      ],
      "alphaMode": "OPAQUE",
      "doubleSided": false
    }
  ],
  "meshes": [
    {
      "name": "Ceramic_cup_Circle.005-Mesh",
      "primitives": [
        {
          "attributes": {
            "POSITION": 0,
            "NORMAL": 1,
            "TEXCOORD_0": 2
          },
          "indices": 3,
          "material": 0,
          "mode": 4
        }
      ]
    },
    {
      "name": "Saucer_Circle.006-Mesh",
      "primitives": [
        {
          "attributes": {
            "POSITION": 4,
            "NORMAL": 5,
            "TEXCOORD_0": 6
          },
          "indices": 7,
          "material": 0,
          "mode": 4
        }
      ]
    },
    {
      "name": "Floor_Plane-Mesh",
      "primitives": [
        {
          "attributes": {
            "POSITION": 8,
            "NORMAL": 9,
            "TEXCOORD_0": 10
          },
          "indices": 11,
          "material": 1,
          "mode": 4
        }
      ]
    },
    {
      "name": "Light_emission.001_Plane.004-Mesh",
      "primitives": [
        {
          "attributes": {
            "POSITION": 12,
            "NORMAL": 13,
            "TEXCOORD_0": 14
          },
          "indices": 15,
          "material": 2,
          "mode": 4
        },
        {
          "attributes": {
            "POSITION": 16,
            "NORMAL": 17,
            "TEXCOORD_0": 18
          },
          "indices": 19,
          "material": 3,
          "mode": 4
        }
      ]
    },
    {
      "name": "Circle_Circle.009-Mesh",
      "primitives": [
        {
          "attributes": {
            "POSITION": 20,
            "NORMAL": 21,
            "TEXCOORD_0": 22
          },
          "indices": 23,
          "material": 4,
          "mode": 4
        }
      ]
    }
  ],
  "nodes": [
    {
      "name": "Ceramic_cup_Circle.005",
      "mesh": 0
    },
    {
      "name": "Saucer_Circle.006",
      "mesh": 1
    },
    {
      "name": "Floor_Plane",
      "mesh": 2
    },
    {
      "name": "Light_emission.001_Plane.004",
      "mesh": 3
    },
    {
      "name": "Circle_Circle.009",
      "mesh": 4
    }
  ],
  "scene": 0,
  "scenes": [
    {
      "nodes": [
        0,
        1,
        2,
        3,
        4
      ]
    }
  ]
}
