{
    "asset" : {
        "generator" : "Khronos glTF Blender I/O v1.7.33",
        "version" : "2.0"
    },
    "extensionsUsed" : [
        "KHR_materials_transmission"
    ],
    "scene" : 0,
    "scenes" : [
        {
            "name" : "Scene",
            "nodes" : [
                2
            ]
        }
    ],
    "nodes" : [
        {
            "mesh" : 0,
            "name" : "cup",
            "scale" : [
                -0.11327570676803589,
                -0.07378219813108444,
                -0.11327570676803589
            ],
            "translation" : [
                0.0006372071802616119,
                -0.018513359129428864,
                0.0018315534107387066
            ]
        },
        {
            "mesh" : 1,
            "name" : "liquid",
            "scale" : [
                -0.11241975426673889,
                -0.07322467863559723,
                -0.11241975426673889
            ],
            "translation" : [
                0.0006372071802616119,
                -0.018513359129428864,
                0.0018315534107387066
            ]
        },
        {
            "children" : [
                0,
                1
            ],
            "mesh" : 2,
            "name" : "cupModel",
            "rotation" : [
                0,
                -0.644823431968689,
                0,
                0.764331579208374
            ],
            "scale" : [
                0.9585860371589661,
                0.9585860371589661,
                0.9585860371589661
            ],
            "translation" : [
                0.0028408635407686234,
                0.0979495719075203,
                0.01320008747279644
            ]
        }
    ],
    "materials" : [
        {
            "doubleSided" : true,
            "extensions" : {
                "KHR_materials_transmission" : {
                    "transmissionFactor" : 1
                }
            },
            "name" : "cup",
            "pbrMetallicRoughness" : {
                "metallicFactor" : 0,
                "roughnessFactor" : 0
            }
        },
        {
            "doubleSided" : true,
            "extensions" : {
                "KHR_materials_transmission" : {
                    "transmissionFactor" : 1
                }
            },
            "name" : "cup2",
            "pbrMetallicRoughness" : {
                "baseColorFactor" : [
                    1,
                    0.9067515730857849,
                    0.934836208820343,
                    1
                ],
                "metallicFactor" : 0,
                "roughnessFactor" : 0
            }
        },
        {
            "doubleSided" : true,
            "extensions" : {
                "KHR_materials_transmission" : {
                    "transmissionFactor" : 1
                }
            },
            "name" : "Material",
            "pbrMetallicRoughness" : {
                "baseColorFactor" : [
                    0.6104956865310669,
                    0.21223078668117523,
                    0.04518621414899826,
                    1
                ],
                "metallicFactor" : 0,
                "roughnessFactor" : 0.1985294222831726
            }
        }
    ],
    "meshes" : [
        {
            "name" : "Cylinder",
            "primitives" : [
                {
                    "attributes" : {
                        "POSITION" : 0,
                        "NORMAL" : 1,
                        "TEXCOORD_0" : 2
                    },
                    "indices" : 3,
                    "material" : 0
                },
                {
                    "attributes" : {
                        "POSITION" : 4,
                        "NORMAL" : 5,
                        "TEXCOORD_0" : 6
                    },
                    "indices" : 7,
                    "material" : 1
                }
            ]
        },
        {
            "name" : "Cylinder.001",
            "primitives" : [
                {
                    "attributes" : {
                        "POSITION" : 8,
                        "NORMAL" : 9,
                        "TEXCOORD_0" : 10
                    },
                    "indices" : 11,
                    "material" : 2
                }
            ]
        },
        {
            "name" : "saucer",
            "primitives" : [
                {
                    "attributes" : {
                        "POSITION" : 12,
                        "NORMAL" : 13,
                        "TEXCOORD_0" : 14
                    },
                    "indices" : 15,
                    "material" : 0
                }
            ]
        }
    ],
    "accessors" : [
        {
            "bufferView" : 0,
            "componentType" : 5126,
            "count" : 385,
            "max" : [
                0.9025730490684509,
                1.0744727849960327,
                0.8915404677391052
            ],
            "min" : [
                -1.478102445602417,
                -0.8523334264755249,
                -0.9003140926361084
            ],
            "type" : "VEC3"
        },
        {
            "bufferView" : 1,
            "componentType" : 5126,
            "count" : 385,
            "type" : "VEC3"
        },
        {
            "bufferView" : 2,
            "componentType" : 5126,
            "count" : 385,
            "type" : "VEC2"
        },
        {
            "bufferView" : 3,
            "componentType" : 5123,
            "count" : 1740,
            "type" : "SCALAR"
        },
        {
            "bufferView" : 4,
            "componentType" : 5126,
            "count" : 165,
            "max" : [
                0.9562046527862549,
                -0.2896381914615631,
                0.9511837363243103
            ],
            "min" : [
                -0.9560638070106506,
                -0.999955952167511,
                -0.960990846157074
            ],
            "type" : "VEC3"
        },
        {
            "bufferView" : 5,
            "componentType" : 5126,
            "count" : 165,
            "type" : "VEC3"
        },
        {
            "bufferView" : 6,
            "componentType" : 5126,
            "count" : 165,
            "type" : "VEC2"
        },
        {
            "bufferView" : 7,
            "componentType" : 5123,
            "count" : 762,
            "type" : "SCALAR"
        },
        {
            "bufferView" : 8,
            "componentType" : 5126,
            "count" : 294,
            "max" : [
                0.9025730490684509,
                1.0744727849960327,
                0.8915404677391052
            ],
            "min" : [
                -0.8895375728607178,
                -0.2896384000778198,
                -0.9003140926361084
            ],
            "type" : "VEC3"
        },
        {
            "bufferView" : 9,
            "componentType" : 5126,
            "count" : 294,
            "type" : "VEC3"
        },
        {
            "bufferView" : 10,
            "componentType" : 5126,
            "count" : 294,
            "type" : "VEC2"
        },
        {
            "bufferView" : 11,
            "componentType" : 5123,
            "count" : 1518,
            "type" : "SCALAR"
        },
        {
            "bufferView" : 12,
            "componentType" : 5126,
            "count" : 224,
            "max" : [
                0.15088233351707458,
                -0.08303935825824738,
                0.15088233351707458
            ],
            "min" : [
                -0.15088233351707458,
                -0.10065736621618271,
                -0.15088233351707458
            ],
            "type" : "VEC3"
        },
        {
            "bufferView" : 13,
            "componentType" : 5126,
            "count" : 224,
            "type" : "VEC3"
        },
        {
            "bufferView" : 14,
            "componentType" : 5126,
            "count" : 224,
            "type" : "VEC2"
        },
        {
            "bufferView" : 15,
            "componentType" : 5123,
            "count" : 1332,
            "type" : "SCALAR"
        }
    ],
    "bufferViews" : [
        {
            "buffer" : 0,
            "byteLength" : 4620,
            "byteOffset" : 0
        },
        {
            "buffer" : 0,
            "byteLength" : 4620,
            "byteOffset" : 4620
        },
        {
            "buffer" : 0,
            "byteLength" : 3080,
            "byteOffset" : 9240
        },
        {
            "buffer" : 0,
            "byteLength" : 3480,
            "byteOffset" : 12320
        },
        {
            "buffer" : 0,
            "byteLength" : 1980,
            "byteOffset" : 15800
        },
        {
            "buffer" : 0,
            "byteLength" : 1980,
            "byteOffset" : 17780
        },
        {
            "buffer" : 0,
            "byteLength" : 1320,
            "byteOffset" : 19760
        },
        {
            "buffer" : 0,
            "byteLength" : 1524,
            "byteOffset" : 21080
        },
        {
            "buffer" : 0,
            "byteLength" : 3528,
            "byteOffset" : 22604
        },
        {
            "buffer" : 0,
            "byteLength" : 3528,
            "byteOffset" : 26132
        },
        {
            "buffer" : 0,
            "byteLength" : 2352,
            "byteOffset" : 29660
        },
        {
            "buffer" : 0,
            "byteLength" : 3036,
            "byteOffset" : 32012
        },
        {
            "buffer" : 0,
            "byteLength" : 2688,
            "byteOffset" : 35048
        },
        {
            "buffer" : 0,
            "byteLength" : 2688,
            "byteOffset" : 37736
        },
        {
            "buffer" : 0,
            "byteLength" : 1792,
            "byteOffset" : 40424
        },
        {
            "buffer" : 0,
            "byteLength" : 2664,
            "byteOffset" : 42216
        }
    ],
    "buffers" : [
        {
            "byteLength" : 44880,
            "uri" : "data:application/octet-stream;base64,"
        }
    ]
}
